<svg id="Layer_1" data-name="Layer 1" xmlns="http://www.w3.org/2000/svg" xmlns:xlink="http://www.w3.org/1999/xlink" viewBox="0 0 512 512"><defs><linearGradient id="linear-gradient" x1="256" y1="512" x2="256" gradientUnits="userSpaceOnUse"><stop offset="0" stop-color="#458d34"/><stop offset="1" stop-color="#8bc53f"/></linearGradient></defs><title>settings</title><path d="M512,412.3A99.7,99.7,0,0,1,412.3,512H99.7A99.7,99.7,0,0,1,0,412.3V99.7A99.7,99.7,0,0,1,99.7,0H412.3A99.7,99.7,0,0,1,512,99.7Z" fill="url(#linear-gradient)"/><path d="M508.47,343.38l-2.9-3.29,4.18,1.41c.74.26,1.5.32,2.25.52V99.7a99.84,99.84,0,0,0-.71-11.51l-3.93-4.48a35.31,35.31,0,0,0-49.71-3.23l-3.36,3,1.43-4.19a35.28,35.28,0,0,0-22-44.67L409.6,26.45a35.28,35.28,0,0,0-44.66,22l-2.3,6.83c-.55-2.66-1.46-7-1.46-7A35.28,35.28,0,0,0,319.49,21l-24.8,5.16a35.34,35.34,0,0,0-28,36.59,36.77,36.77,0,0,0,.69,5.1s.27,1.28.3,1.41c-.1-.1-1-1.09-1-1.09A35.28,35.28,0,0,0,217,65L198,81.67a35.24,35.24,0,0,0-3.22,49.72l2.91,3.31-4.21-1.41a35.3,35.3,0,0,0-44.64,22l-8.15,24.11a35.27,35.27,0,0,0,22,44.64l6.89,2.35c-2.69.54-7.06,1.46-7.06,1.46a35.31,35.31,0,0,0-28,36.58,35.65,35.65,0,0,0,.69,5.1l5.16,24.78A35.32,35.32,0,0,0,182,321.66l1.43-.31-1.12,1a35.29,35.29,0,0,0-3.2,49.72l16.71,19a35.26,35.26,0,0,0,49.72,3.23l3.31-2.9-1.41,4.17a34.86,34.86,0,0,0-1.82,13.4,35.42,35.42,0,0,0,23.85,31.25l24.08,8.13a35.33,35.33,0,0,0,44.63-22s1.44-4.25,2.34-6.9L342,426.5a35.26,35.26,0,0,0,41.69,27.31l24.78-5.16A35.21,35.21,0,0,0,435.84,407s-.27-1.25-.29-1.39c.09.11.92,1.07.92,1.07a35.26,35.26,0,0,0,49.83,3.13l19-16.63a34.36,34.36,0,0,0,6.73-8.36V348.15A35,35,0,0,0,508.47,343.38ZM359,272.89A36.27,36.27,0,1,1,387.11,230,36.06,36.06,0,0,1,359,272.89Z" fill="#21632c"/><path d="M341.22,169.22A59.81,59.81,0,1,0,409,219.81,59.81,59.81,0,0,0,341.22,169.22Z" fill="none"/><path d="M502.58,264.44c-5.95-2.45-10.09-8.6-9.23-13.7s7-19.59,13.4-20.51l5.24-.76V180.25L499.76,182c-6.39.92-13-2-14.63-6.52s-2.94-19,2.12-22.91l22.22-17.22a11.38,11.38,0,0,0,2.52-2.94V119.89c-.19-.29-.24-.65-.45-.92L496,98.94a11.73,11.73,0,0,0-16.39-2.08l-22.15,17.2c-5.06,3.94-12.39,4.54-16.22,1.36S428.51,99.93,430.95,94l10.58-26a11.71,11.71,0,0,0-6.39-15.24l-23.48-9.57a11.76,11.76,0,0,0-15.25,6.41l-10.6,26c-2.44,5.94-8.6,10.09-13.69,9.23s-19.58-7-20.51-13.42l-4-27.81a11.74,11.74,0,0,0-13.27-9.88L309.25,37.4a11.73,11.73,0,0,0-9.88,13.24l4,27.81c.92,6.38-2,13-6.51,14.65S277.94,96,274,91L256.77,68.75a11.73,11.73,0,0,0-16.39-2.06l-20,15.53a11.72,11.72,0,0,0-2.07,16.39l17.16,22.15c3.94,5.08,4.54,12.35,1.36,16.21s-15.49,12.74-21.44,10.29l-26-10.58a11.74,11.74,0,0,0-15.25,6.39l-9.56,23.48A11.76,11.76,0,0,0,171,181.79l26,10.6c6,2.45,10.12,8.6,9.24,13.7s-7,19.6-13.38,20.53l-27.82,4.06a11.71,11.71,0,0,0-9.91,13.23L158.78,269a11.73,11.73,0,0,0,13.27,9.9l27.83-4c6.35-.92,12.93,2,14.62,6.47s2.95,19-2.13,22.91l-22.21,17.27a11.7,11.7,0,0,0-2.07,16.37l15.53,20A11.72,11.72,0,0,0,220,360l22.14-17.18c5.07-3.94,12.39-4.54,16.22-1.36s12.73,15.5,10.28,21.44l-10.58,26a11.72,11.72,0,0,0,6.39,15.24l23.48,9.56a11.75,11.75,0,0,0,15.24-6.41l10.6-26c2.44-6,8.6-10.13,13.7-9.23s19.6,7,20.53,13.37l4,27.86a11.74,11.74,0,0,0,13.24,9.88l25.06-3.65a11.73,11.73,0,0,0,9.91-13.24l-4-27.85c-.92-6.35,2-12.93,6.47-14.62s19-2.94,22.91,2.13l17.22,22.21a11.7,11.7,0,0,0,16.41,2.06l20-15.51a11.71,11.71,0,0,0,2.07-16.39l-17.16-22.15c-4-5.08-4.56-12.37-1.38-16.23s15.49-12.72,21.46-10.29l26,10.6a11.69,11.69,0,0,0,1.78.52v-52.4ZM358.41,287.59A59.81,59.81,0,1,1,409,219.81,59.78,59.78,0,0,1,358.41,287.59Z" fill="#fff"/><path d="M344.22,201.88A36.27,36.27,0,1,0,387.11,230,36.37,36.37,0,0,0,344.22,201.88Z" fill="none"/></svg>